<svg width="200" height="200" viewBox="0 0 200 200" fill="none" xmlns="http://www.w3.org/2000/svg">
<rect width="200" height="200" rx="24" fill="#F9F9F9"/>
<path fill-rule="evenodd" clip-rule="evenodd" d="M80.186 133.181C74.7736 133.181 70.0605 137.221 69.2447 142.568C69.1541 143.112 69.1152 143.682 69.1152 144.239C69.1152 150.337 74.0744 155.296 80.186 155.296C86.2976 155.296 91.2438 150.337 91.2438 144.239C91.2438 143.669 91.205 143.099 91.1143 142.568C90.2986 137.208 85.5984 133.168 80.186 133.168V133.181Z" fill="#FA921C"/>
<path fill-rule="evenodd" clip-rule="evenodd" d="M139.877 133.181C134.452 133.181 129.752 137.22 128.936 142.568C128.845 143.112 128.807 143.682 128.807 144.251C128.807 150.35 133.779 155.309 139.877 155.309C145.976 155.309 150.935 150.35 150.935 144.251C150.935 143.682 150.896 143.125 150.806 142.581C149.99 137.22 145.29 133.181 139.877 133.181Z" fill="#FA921C"/>
<path fill-rule="evenodd" clip-rule="evenodd" d="M185.339 66.3818C183.785 65.8898 178.58 66.0192 177.324 66.0063C175.356 66.0063 141.678 66.0192 99.0262 66.0322H97.1746C95.5819 66.0322 94.2871 67.3399 94.2871 68.9196V78.6825C94.2871 80.2622 95.5819 81.557 97.1616 81.557H122.255C122.385 81.557 148.993 81.5699 157.138 81.5699C161.191 81.5699 163.573 81.6476 164.337 83.5251C164.998 85.1695 163.716 87.4872 161.631 89.4942C161.087 90.025 120.702 126.435 120.391 126.746C120.261 126.875 120.145 127.018 120.08 127.199C120.015 127.367 120.015 127.549 120.015 127.73C119.925 130.643 119.925 133.065 119.925 135.978C119.925 136.509 119.925 137.053 119.925 137.583C119.925 138.347 119.938 138.943 119.938 139.241C119.938 140.833 121.232 142.128 122.812 142.128H123.718C123.861 142.128 123.99 142.025 124.029 141.869C125.479 134.256 132.174 128.74 139.943 128.74C147.712 128.74 154.38 134.269 155.843 141.882C155.869 142.025 155.999 142.128 156.154 142.128H164.001C165.593 142.128 166.888 140.833 166.888 139.241V129.478C166.888 127.885 165.593 126.591 164.001 126.591C156.037 126.591 147.284 126.578 146.974 126.552C146.378 126.383 146.015 126.047 145.886 125.568C145.782 125.153 145.925 124.635 146.248 124.338C147.427 123.211 178.71 95.3208 181.338 92.3687C183.19 90.284 186.518 77.0769 186.66 75.8727C187.178 71.6646 187.761 67.0939 185.326 66.3171L185.339 66.3818Z" fill="#FA921C"/>
<path fill-rule="evenodd" clip-rule="evenodd" d="M110.5 126.63C107.885 126.63 104.725 126.63 101.346 126.63C87.8021 126.63 70.6586 126.604 70.6327 126.604C67.4086 126.604 65.2333 124.416 65.2333 121.632V116.207C65.2333 113.54 67.3309 111.895 70.4514 111.895H79.1786H99.0541C100.647 111.895 101.942 110.6 101.942 109.021V99.2449C101.942 97.704 100.724 96.4481 99.1707 96.3833C99.1059 96.3833 57.3607 96.1632 57.3607 96.1632C54.4474 96.1632 51.8966 93.7678 51.8966 90.233V87.0218C51.8966 84.0049 54.3438 81.5577 57.3607 81.5577H84.824C86.4037 81.5577 87.6985 80.2629 87.6985 78.6832V68.9204C87.6985 67.3407 86.4037 66.0459 84.8111 66.0459H35.776C35.776 66.0459 35.6853 66.0459 35.5947 66.0459H15.8875C14.2948 66.0459 13 67.3407 13 68.9204V78.6832C13 80.2629 14.2948 81.5577 15.8875 81.5577H31.27C31.3736 81.5577 31.4772 81.5577 31.5678 81.5966C33.7043 82.1533 35.0638 84.2251 35.5688 85.8177C38.5469 95.0367 45.9792 117.217 48.1934 123.833C48.53 124.856 48.8537 125.918 49.2163 127.083C51.4822 134.49 53.8259 142.142 62.307 142.142H64.0032C64.1456 142.142 64.2751 142.038 64.314 141.896C65.7642 134.282 72.4584 128.754 80.2274 128.754C87.9963 128.754 94.6647 134.282 96.1278 141.896C96.1537 142.038 96.2832 142.142 96.4386 142.142H110.474C112.054 142.142 113.349 140.847 113.349 139.255V129.194C113.349 127.601 112.067 126.617 110.474 126.617L110.5 126.63Z" fill="#FA921C"/>
</svg>
