<svg width="46" height="46" viewBox="0 0 46 46" fill="none" xmlns="http://www.w3.org/2000/svg">
<path d="M24.3657 30.1156C24.7331 29.7483 24.9167 29.2931 24.9167 28.75C24.9167 28.207 24.7331 27.7518 24.3657 27.3844C23.9983 27.017 23.5431 26.8334 23.0001 26.8334C22.457 26.8334 22.0018 27.017 21.6345 27.3844C21.2671 27.7518 21.0834 28.207 21.0834 28.75C21.0834 29.2931 21.2671 29.7483 21.6345 30.1156C22.0018 30.483 22.457 30.6667 23.0001 30.6667C23.5431 30.6667 23.9983 30.483 24.3657 30.1156ZM24.3657 22.449C24.7331 22.0816 24.9167 21.6264 24.9167 21.0834V15.3334C24.9167 14.7903 24.7331 14.3351 24.3657 13.9677C23.9983 13.6004 23.5431 13.4167 23.0001 13.4167C22.457 13.4167 22.0018 13.6004 21.6345 13.9677C21.2671 14.3351 21.0834 14.7903 21.0834 15.3334V21.0834C21.0834 21.6264 21.2671 22.0816 21.6345 22.449C22.0018 22.8163 22.457 23 23.0001 23C23.5431 23 23.9983 22.8163 24.3657 22.449ZM22.3772 41.9271C22.1855 41.8952 21.9938 41.8472 21.8022 41.7834C17.4897 40.3459 14.0556 37.6865 11.5001 33.8052C8.94453 29.924 7.66675 25.7472 7.66675 21.275V12.2188C7.66675 11.4202 7.89835 10.7014 8.36154 10.0625C8.82473 9.42363 9.42369 8.96043 10.1584 8.67293L21.6584 4.36043C22.1056 4.20071 22.5529 4.12085 23.0001 4.12085C23.4473 4.12085 23.8945 4.20071 24.3417 4.36043L35.8417 8.67293C36.5765 8.96043 37.1754 9.42363 37.6386 10.0625C38.1018 10.7014 38.3334 11.4202 38.3334 12.2188V21.275C38.3334 25.7472 37.0556 29.924 34.5001 33.8052C31.9445 37.6865 28.5105 40.3459 24.198 41.7834C24.0063 41.8472 23.8147 41.8952 23.623 41.9271C23.4313 41.959 23.2237 41.975 23.0001 41.975C22.7765 41.975 22.5688 41.959 22.3772 41.9271ZM23.0001 38.1417C26.3223 37.0875 29.0695 34.9792 31.2417 31.8167C33.414 28.6542 34.5001 25.1403 34.5001 21.275V12.2188L23.0001 7.90627L11.5001 12.2188V21.275C11.5001 25.1403 12.5862 28.6542 14.7584 31.8167C16.9306 34.9792 19.6779 37.0875 23.0001 38.1417Z" fill="#F9F9F9"/>
</svg>
