<svg width="24" height="24" viewBox="0 0 24 24" fill="none" xmlns="http://www.w3.org/2000/svg">
<path d="M5.51134 23.292C5.04305 22.824 4.80291 22.26 4.80291 21.6C4.80291 20.94 5.04305 20.376 5.51134 19.908C5.97962 19.44 6.54396 19.2 7.20436 19.2C7.86476 19.2 8.4291 19.44 8.89738 19.908C9.36567 20.376 9.60581 20.94 9.60581 21.6C9.60581 22.26 9.36567 22.824 8.89738 23.292C8.4291 23.76 7.86476 24 7.20436 24C6.54396 24 5.97962 23.76 5.51134 23.292ZM17.5186 23.292C17.0503 22.824 16.8102 22.26 16.8102 21.6C16.8102 20.94 17.0503 20.376 17.5186 19.908C17.9869 19.44 18.5512 19.2 19.2116 19.2C19.872 19.2 20.4364 19.44 20.9046 19.908C21.3729 20.376 21.6131 20.94 21.6131 21.6C21.6131 22.26 21.3729 22.824 20.9046 23.292C20.4364 23.76 19.872 24 19.2116 24C18.5512 24 17.9869 23.76 17.5186 23.292ZM6.18374 4.8L9.06549 10.8H17.4706L20.7726 4.8H6.18374ZM5.04305 2.4H22.7538C23.21 2.4 23.5703 2.604 23.8104 3.012C24.0506 3.42 24.0626 3.84 23.8464 4.26L19.5839 11.94C19.3677 12.336 19.0675 12.648 18.6953 12.876C18.3231 13.104 17.9148 13.212 17.4826 13.212H8.53717L7.21637 15.612H20.4244C20.7606 15.612 21.0487 15.732 21.2769 15.96C21.505 16.188 21.6251 16.476 21.6251 16.812C21.6251 17.148 21.505 17.436 21.2769 17.664C21.0487 17.892 20.7606 18.012 20.4244 18.012H7.20436C6.30381 18.012 5.6194 17.616 5.16312 16.824C4.70685 16.032 4.68283 15.252 5.10309 14.472L6.72407 11.532L2.40145 2.4H1.20073C0.864523 2.4 0.576349 2.28 0.348211 2.052C0.120073 1.824 0 1.536 0 1.2C0 0.864 0.120073 0.576 0.348211 0.348C0.576349 0.12 0.864523 0 1.20073 0H3.15791C3.37404 0 3.59017 0.06 3.7943 0.18C3.99842 0.3 4.14251 0.468 4.25057 0.696L5.06707 2.412L5.04305 2.4Z" fill="#121180"/>
</svg>
