<svg width="46" height="46" viewBox="0 0 46 46" fill="none" xmlns="http://www.w3.org/2000/svg">
<path d="M19.1667 40.2498H9.58333C8.52917 40.2498 7.62674 39.8745 6.87604 39.1238C6.12535 38.3731 5.75 37.4707 5.75 36.4165V9.58317C5.75 8.529 6.12535 7.62657 6.87604 6.87588C7.62674 6.12518 8.52917 5.74984 9.58333 5.74984H19.1667V3.83317C19.1667 3.29012 19.3503 2.83491 19.7177 2.46755C20.0851 2.10018 20.5403 1.9165 21.0833 1.9165C21.6264 1.9165 22.0816 2.10018 22.449 2.46755C22.8163 2.83491 23 3.29012 23 3.83317V42.1665C23 42.7096 22.8163 43.1648 22.449 43.5321C22.0816 43.8995 21.6264 44.0832 21.0833 44.0832C20.5403 44.0832 20.0851 43.8995 19.7177 43.5321C19.3503 43.1648 19.1667 42.7096 19.1667 42.1665V40.2498ZM9.58333 34.4998H19.1667V22.9998L9.58333 34.4998ZM26.8333 40.2498V22.9998L36.4167 34.4998V9.58317H26.8333V5.74984H36.4167C37.4708 5.74984 38.3733 6.12518 39.124 6.87588C39.8747 7.62657 40.25 8.529 40.25 9.58317V36.4165C40.25 37.4707 39.8747 38.3731 39.124 39.1238C38.3733 39.8745 37.4708 40.2498 36.4167 40.2498H26.8333Z" fill="#F9F9F9"/>
</svg>
