<svg width="24" height="24" viewBox="0 0 24 24" fill="none" xmlns="http://www.w3.org/2000/svg">
<path d="M12 24C11.5214 24 11.0668 23.9043 10.6241 23.7248C10.1815 23.5454 9.7986 23.2822 9.45164 22.9472C8.87737 22.3729 8.37488 21.99 7.95613 21.8106C7.53739 21.6311 6.90329 21.5354 6.0658 21.5354C5.07278 21.5354 4.22333 21.1884 3.51745 20.4826C2.81157 19.7767 2.46461 18.9392 2.46461 17.9342C2.46461 17.0967 2.36889 16.4626 2.18943 16.0439C2.00997 15.6251 1.62712 15.1226 1.05284 14.5484C0.717846 14.2134 0.454636 13.8185 0.275174 13.3759C0.0957128 12.9332 0 12.4786 0 12C0 11.5214 0.0957128 11.0668 0.275174 10.6241C0.454636 10.1815 0.717846 9.7986 1.05284 9.45164C1.62712 8.87737 2.00997 8.37488 2.18943 7.95613C2.36889 7.53739 2.46461 6.90329 2.46461 6.0658C2.46461 5.07278 2.81157 4.22333 3.51745 3.51745C4.22333 2.81157 5.06082 2.46461 6.0658 2.46461C6.90329 2.46461 7.53739 2.36889 7.95613 2.18943C8.37488 2.00997 8.87737 1.62712 9.45164 1.05284C9.78664 0.717846 10.1815 0.454636 10.6241 0.275174C11.0668 0.0957129 11.5214 0 12 0C12.4786 0 12.9332 0.0957129 13.3759 0.275174C13.8185 0.454636 14.2014 0.717846 14.5484 1.05284C15.1226 1.62712 15.6251 2.00997 16.0439 2.18943C16.4626 2.36889 17.0967 2.46461 17.9342 2.46461C18.9272 2.46461 19.7767 2.81157 20.4826 3.51745C21.1884 4.22333 21.5354 5.06082 21.5354 6.0658C21.5354 6.90329 21.6311 7.53739 21.8106 7.95613C21.99 8.37488 22.3729 8.87737 22.9472 9.45164C23.2822 9.78664 23.5454 10.1815 23.7248 10.6241C23.9043 11.0668 24 11.5214 24 12C24 12.4786 23.9043 12.9332 23.7248 13.3759C23.5454 13.8185 23.2822 14.2014 22.9472 14.5484C22.3729 15.1226 21.99 15.6251 21.8106 16.0439C21.6311 16.4626 21.5354 17.0967 21.5354 17.9342C21.5354 18.9272 21.1884 19.7767 20.4826 20.4826C19.7767 21.1884 18.9392 21.5354 17.9342 21.5354C17.0967 21.5354 16.4626 21.6311 16.0439 21.8106C15.6251 21.99 15.1226 22.3729 14.5484 22.9472C14.2134 23.2822 13.8185 23.5454 13.3759 23.7248C12.9332 23.9043 12.4786 24 12 24ZM12 21.6072C12.1555 21.6072 12.3111 21.5713 12.4666 21.4995C12.6221 21.4277 12.7418 21.344 12.8375 21.2483C13.651 20.4347 14.4287 19.8724 15.1466 19.5852C15.8644 19.2981 16.7976 19.1545 17.9342 19.1545C18.2692 19.1545 18.5563 19.0349 18.7836 18.8076C19.011 18.5803 19.1306 18.2931 19.1306 17.9581C19.1306 16.7976 19.2742 15.8644 19.5613 15.1585C19.8485 14.4526 20.3988 13.6869 21.2243 12.8734C21.4636 12.6341 21.5833 12.3589 21.5833 12.0359C21.5833 11.7129 21.4636 11.4377 21.2243 11.1984C20.4108 10.3848 19.8485 9.60718 19.5613 8.88933C19.2742 8.17148 19.1306 7.23829 19.1306 6.1017C19.1306 5.7667 19.011 5.47956 18.7836 5.25224C18.5563 5.02493 18.2692 4.90528 17.9342 4.90528C16.7737 4.90528 15.8405 4.76171 15.1346 4.47458C14.4287 4.18744 13.663 3.63709 12.8495 2.81157C12.7537 2.71585 12.6221 2.6321 12.4786 2.56032C12.335 2.48853 12.1795 2.45264 12.012 2.45264C11.8445 2.45264 11.7009 2.48853 11.5454 2.56032C11.3898 2.6321 11.2702 2.71585 11.1745 2.81157C10.3609 3.62512 9.58325 4.18744 8.8654 4.47458C8.14756 4.76171 7.21436 4.90528 6.07777 4.90528C5.74277 4.90528 5.45563 5.02493 5.22831 5.25224C5.001 5.47956 4.88136 5.7667 4.88136 6.1017C4.88136 7.26221 4.73779 8.19541 4.45065 8.9013C4.16351 9.60718 3.61316 10.3729 2.78764 11.1864C2.54835 11.4257 2.42871 11.7009 2.42871 12.0239C2.42871 12.347 2.54835 12.6221 2.78764 12.8614C3.6012 13.675 4.16351 14.4526 4.45065 15.1705C4.73779 15.8883 4.88136 16.8215 4.88136 17.9581C4.88136 18.2931 5.001 18.5803 5.22831 18.8076C5.45563 19.0349 5.74277 19.1545 6.07777 19.1545C7.23829 19.1545 8.17148 19.2981 8.87737 19.5852C9.58325 19.8724 10.349 20.4227 11.1625 21.2483C11.2582 21.344 11.3898 21.4277 11.5334 21.4995C11.677 21.5713 11.8325 21.6072 12 21.6072ZM14.991 16.8215C15.4935 16.8215 15.9123 16.6421 16.2592 16.2951C16.6062 15.9482 16.7856 15.5174 16.7856 15.0269C16.7856 14.5364 16.6062 14.1057 16.2592 13.7587C15.9123 13.4118 15.4816 13.2323 14.991 13.2323C14.5005 13.2323 14.0698 13.4118 13.7228 13.7587C13.3759 14.1057 13.1964 14.5364 13.1964 15.0269C13.1964 15.5174 13.3759 15.9482 13.7228 16.2951C14.0698 16.6421 14.5005 16.8215 14.991 16.8215ZM8.11166 15.9242C8.35095 16.1635 8.62612 16.2832 8.94915 16.2832C9.27218 16.2832 9.54736 16.1635 9.78664 15.9242L15.8883 9.84646C16.1276 9.60718 16.2473 9.32004 16.2473 8.99701C16.2473 8.67398 16.1276 8.38684 15.8883 8.14756C15.6491 7.90828 15.3619 7.78863 15.0389 7.78863C14.7159 7.78863 14.4287 7.90828 14.1894 8.14756L8.11166 14.2493C7.87238 14.4885 7.75274 14.7637 7.75274 15.0867C7.75274 15.4098 7.87238 15.6849 8.11166 15.9242ZM10.2772 10.3131C10.6241 9.9661 10.8036 9.53539 10.8036 9.04487C10.8036 8.55434 10.6241 8.12363 10.2772 7.77667C9.93021 7.42971 9.4995 7.25025 9.00897 7.25025C8.51844 7.25025 8.08774 7.42971 7.74078 7.77667C7.39382 8.12363 7.21436 8.55434 7.21436 9.04487C7.21436 9.53539 7.39382 9.9661 7.74078 10.3131C8.08774 10.66 8.51844 10.8395 9.00897 10.8395C9.4995 10.8395 9.93021 10.66 10.2772 10.3131Z" fill="#121180"/>
</svg>
