<svg width="23" height="23" viewBox="0 0 23 23" fill="none" xmlns="http://www.w3.org/2000/svg">
<path d="M7.60866 0.619788C10.0802 -0.228711 12.7678 -0.205374 15.2243 0.685917C16.5733 1.19094 17.8094 1.95746 18.8614 2.94147C18.5039 3.32394 18.1268 3.6814 17.7622 4.05315C17.0687 4.74543 16.3759 5.43532 15.6836 6.12282C14.9934 5.46285 14.1586 4.97323 13.2457 4.693C12.0775 4.34026 10.8347 4.31611 9.6537 4.62319C8.47267 4.93027 7.39903 5.55672 6.55059 6.43381C5.81 7.18721 5.24914 8.09816 4.90987 9.09865L1.20483 6.23006C2.53101 3.60019 4.8272 1.58854 7.60866 0.619788Z" fill="#E33629"/>
<path d="M0.221618 9.07127C0.420759 8.08432 0.751374 7.12854 1.20462 6.22949L4.90965 9.10523C4.42497 10.5326 4.42497 12.08 4.90965 13.5073C3.67524 14.4605 2.44023 15.4185 1.20462 16.3812C0.0699681 14.1227 -0.276082 11.5493 0.221618 9.07127Z" fill="#F8BD00"/>
<path d="M11.3047 9.18799H21.9426C22.3065 11.1843 22.2081 13.2374 21.6549 15.1897C21.1459 16.985 20.1573 18.6076 18.7952 19.8831C17.5996 18.9501 16.3985 18.0243 15.2028 17.0913C15.7956 16.6915 16.3016 16.1761 16.6904 15.576C17.0792 14.9759 17.3428 14.3034 17.4655 13.599H11.3047C11.303 12.1299 11.3047 10.6589 11.3047 9.18799Z" fill="#121180"/>
<path d="M1.20288 16.3818C2.43849 15.4285 3.6735 14.4706 4.90791 13.5078C5.38549 14.9094 6.29378 16.1242 7.50305 16.9787C8.25729 17.5118 9.11433 17.8819 10.0195 18.0654C10.9115 18.2312 11.8264 18.2312 12.7183 18.0654C13.6077 17.9148 14.4557 17.58 15.208 17.0824C16.4037 18.0153 17.6048 18.9411 18.8004 19.8741C17.492 21.0639 15.8969 21.8935 14.1714 22.2816C12.2669 22.7293 10.2821 22.7078 8.38775 22.219C6.88948 21.819 5.48999 21.1138 4.277 20.1476C2.99313 19.1283 1.94452 17.8437 1.20288 16.3818Z" fill="#319F43"/>
</svg>
