<svg width="22" height="24" viewBox="0 0 22 24" fill="none" xmlns="http://www.w3.org/2000/svg">
<path d="M2.75 21.2571H6.875V14.4C6.875 14.016 7.0125 13.6869 7.27375 13.4263C7.535 13.1657 7.865 13.0286 8.25 13.0286H13.75C14.135 13.0286 14.465 13.1657 14.7262 13.4263C14.9875 13.6869 15.125 14.016 15.125 14.4V21.2571H19.25V8.91429L11 2.74286L2.75 8.91429V21.2571ZM0 21.2571V8.91429C0 8.47543 0.09625 8.064 0.28875 7.68C0.48125 7.296 0.75625 6.96686 1.1 6.72L9.35 0.548571C9.83125 0.178286 10.3813 0 11 0C11.6187 0 12.1687 0.178286 12.65 0.548571L20.9 6.72C21.2437 6.96686 21.5187 7.296 21.7113 7.68C21.9037 8.064 22 8.47543 22 8.91429V21.2571C22 22.0114 21.725 22.656 21.1887 23.1909C20.6525 23.7257 20.0063 24 19.25 24H13.75C13.365 24 13.035 23.8629 12.7738 23.6023C12.5125 23.3417 12.375 23.0126 12.375 22.6286V15.7714H9.625V22.6286C9.625 23.0126 9.4875 23.3417 9.22625 23.6023C8.965 23.8629 8.635 24 8.25 24H2.75C1.99375 24 1.3475 23.7257 0.81125 23.1909C0.275 22.656 0 22.0114 0 21.2571Z" fill="#121180"/>
</svg>
