<svg width="46" height="46" viewBox="0 0 46 46" fill="none" xmlns="http://www.w3.org/2000/svg">
<path d="M8.3375 39.6752C7.69861 39.9308 7.10764 39.8589 6.56458 39.4596C6.02153 39.0603 5.75 38.5252 5.75 37.8544V11.0211C5.75 10.6058 5.86979 10.2384 6.10938 9.91898C6.34896 9.59953 6.67639 9.35995 7.09167 9.20023L16.0042 6.18148C16.4194 6.02176 16.8347 5.94189 17.25 5.94189C17.6653 5.94189 18.0806 6.02176 18.4958 6.18148L28.75 9.77523L37.6625 6.32523C38.3014 6.06967 38.8924 6.14155 39.4354 6.54085C39.9785 6.94016 40.25 7.47523 40.25 8.14606V22.3773C40.25 22.9204 40.0663 23.3756 39.699 23.7429C39.3316 24.1103 38.8764 24.294 38.3333 24.294C37.7903 24.294 37.3351 24.1103 36.9677 23.7429C36.6003 23.3756 36.4167 22.9204 36.4167 22.3773V10.9252L30.6667 13.1294V17.9211C30.6667 18.4641 30.483 18.9193 30.1156 19.2867C29.7483 19.654 29.2931 19.8377 28.75 19.8377C28.2069 19.8377 27.7517 19.654 27.3844 19.2867C27.017 18.9193 26.8333 18.4641 26.8333 17.9211V13.1294L19.1667 10.4461V33.494C19.1667 34.1009 18.999 34.644 18.6635 35.1231C18.3281 35.6023 17.8889 35.9537 17.3458 36.1773L8.3375 39.6752ZM9.58333 35.0752L15.3333 32.8711V10.4461L9.58333 12.3627V35.0752ZM33.374 33.5419C34.0927 32.903 34.4681 31.9447 34.5 30.6669C34.5319 29.5808 34.1726 28.6704 33.4219 27.9356C32.6712 27.2009 31.7528 26.8336 30.6667 26.8336C29.5806 26.8336 28.6701 27.2009 27.9354 27.9356C27.2007 28.6704 26.8333 29.5808 26.8333 30.6669C26.8333 31.753 27.2007 32.6634 27.9354 33.3981C28.6701 34.1329 29.5806 34.5002 30.6667 34.5002C31.7528 34.5002 32.6552 34.1808 33.374 33.5419ZM30.6667 38.3336C28.5583 38.3336 26.7535 37.5829 25.2521 36.0815C23.7507 34.5801 23 32.7752 23 30.6669C23 28.5586 23.7507 26.7537 25.2521 25.2523C26.7535 23.7509 28.5583 23.0002 30.6667 23.0002C32.775 23.0002 34.5799 23.7509 36.0813 25.2523C37.5826 26.7537 38.3333 28.5586 38.3333 30.6669C38.3333 31.4016 38.2455 32.0964 38.0698 32.7513C37.8941 33.4061 37.6306 34.0211 37.2792 34.5961L40.825 38.1419C41.1764 38.4933 41.3521 38.9405 41.3521 39.4836C41.3521 40.0266 41.1764 40.4738 40.825 40.8252C40.4736 41.1766 40.0264 41.3523 39.4833 41.3523C38.9403 41.3523 38.4931 41.1766 38.1417 40.8252L34.5958 37.2794C34.0208 37.6308 33.4059 37.8943 32.751 38.07C32.0962 38.2457 31.4014 38.3336 30.6667 38.3336Z" fill="#F9F9F9"/>
</svg>
