<svg width="24" height="21" viewBox="0 0 24 21" fill="none" xmlns="http://www.w3.org/2000/svg">
<path d="M12 21C11.72 21 11.4348 20.9505 11.1444 20.8515C10.854 20.7525 10.5992 20.5941 10.38 20.3762L8.31 18.5049C6.19 16.5842 4.2748 14.678 2.5644 12.7865C0.854001 10.895 -0.000799439 8.81109 5.6101e-07 6.53465C5.6101e-07 4.67327 0.630001 3.11881 1.89 1.87129C3.15 0.623764 4.72 2.1066e-06 6.6 2.1066e-06C7.66 2.1066e-06 8.66 0.222576 9.6 0.667725C10.54 1.11287 11.34 1.72198 12 2.49505C12.66 1.72277 13.46 1.11366 14.4 0.667725C15.34 0.221784 16.34 -0.000789972 17.4 2.1066e-06C19.28 2.1066e-06 20.85 0.623764 22.11 1.87129C23.37 3.11881 24 4.67327 24 6.53465C24 8.81188 23.15 10.901 21.45 12.802C19.75 14.703 17.82 16.6139 15.66 18.5347L13.62 20.3762C13.4 20.5941 13.1452 20.7525 12.8556 20.8515C12.566 20.9505 12.2808 21 12 21ZM10.86 4.87129C10.28 4.05941 9.66 3.44079 9 3.01545C8.34 2.5901 7.54 2.37703 6.6 2.37624C5.4 2.37624 4.4 2.77228 3.6 3.56436C2.8 4.35644 2.4 5.34654 2.4 6.53465C2.4 7.56436 2.77 8.65861 3.51 9.81743C4.25 10.9762 5.1352 12.0998 6.1656 13.1881C7.1952 14.2772 8.2552 15.297 9.3456 16.2475C10.436 17.198 11.3208 17.9802 12 18.5941C12.68 17.9802 13.5652 17.198 14.6556 16.2475C15.746 15.297 16.806 14.2772 17.8356 13.1881C18.8652 12.099 19.75 10.9754 20.49 9.81743C21.23 8.65941 21.6 7.56515 21.6 6.53465C21.6 5.34654 21.2 4.35644 20.4 3.56436C19.6 2.77228 18.6 2.37624 17.4 2.37624C16.46 2.37624 15.66 2.58891 15 3.01426C14.34 3.4396 13.72 4.05862 13.14 4.87129C13 5.06931 12.83 5.21782 12.63 5.31683C12.43 5.41584 12.22 5.46535 12 5.46535C11.78 5.46535 11.57 5.41584 11.37 5.31683C11.17 5.21782 11 5.06931 10.86 4.87129Z" fill="#121180"/>
</svg>
