<svg width="23" height="23" viewBox="0 0 23 23" fill="none" xmlns="http://www.w3.org/2000/svg">
<path d="M18.9504 9.47471C18.9504 14.2057 13.7021 19.1328 11.9397 20.6545C11.7755 20.778 11.5756 20.8447 11.3702 20.8447C11.1648 20.8447 10.9649 20.778 10.8008 20.6545C9.03836 19.1328 3.79004 14.2057 3.79004 9.47471C3.79004 7.46432 4.58866 5.53627 6.01022 4.11471C7.43178 2.69315 9.35983 1.89453 11.3702 1.89453C13.3806 1.89453 15.3086 2.69315 16.7302 4.11471C18.1518 5.53627 18.9504 7.46432 18.9504 9.47471Z" stroke="#121180" stroke-width="1.89504" stroke-linecap="round" stroke-linejoin="round"/>
<path d="M11.3702 12.317C12.9401 12.317 14.2127 11.0443 14.2127 9.4744C14.2127 7.9045 12.9401 6.63184 11.3702 6.63184C9.80025 6.63184 8.52759 7.9045 8.52759 9.4744C8.52759 11.0443 9.80025 12.317 11.3702 12.317Z" stroke="#121180" stroke-width="1.89504" stroke-linecap="round" stroke-linejoin="round"/>
</svg>
