<svg width="21" height="24" viewBox="0 0 21 24" fill="none" xmlns="http://www.w3.org/2000/svg">
<g clip-path="url(#clip0_1011_11069)">
<path d="M9.6 24C8.94 24 8.376 23.76 7.908 23.292C7.44 22.824 7.2 22.26 7.2 21.6H12C12 22.26 11.76 22.824 11.292 23.292C10.824 23.76 10.26 24 9.6 24ZM1.2 20.4C0.864 20.4 0.576 20.28 0.348 20.052C0.12 19.824 0 19.536 0 19.2C0 18.864 0.12 18.576 0.348 18.348C0.576 18.12 0.864 18 1.2 18H2.4V9.6C2.4 7.944 2.904 6.468 3.9 5.172C4.896 3.876 6.204 3.036 7.8 2.64V1.8C7.8 1.296 7.98 0.876 8.328 0.528C8.676 0.18 9.108 0 9.6 0C10.092 0 10.524 0.18 10.872 0.528C11.22 0.876 11.4 1.308 11.4 1.8V2.196C11.184 2.64 11.016 3.084 10.92 3.552C10.824 4.02 10.776 4.488 10.8 4.968C10.596 4.932 10.404 4.896 10.212 4.86C10.02 4.824 9.816 4.812 9.6 4.812C8.28 4.812 7.152 5.28 6.204 6.228C5.256 7.176 4.788 8.304 4.788 9.624V18.024H14.388V10.308C14.748 10.464 15.132 10.596 15.54 10.68C15.948 10.764 16.368 10.812 16.788 10.812V18.012H17.988C18.324 18.012 18.612 18.132 18.84 18.36C19.068 18.588 19.188 18.876 19.188 19.212C19.188 19.548 19.068 19.836 18.84 20.064C18.612 20.292 18.324 20.412 17.988 20.412H1.2V20.4ZM14.256 7.356C13.56 6.66 13.2 5.808 13.2 4.8C13.2 3.792 13.548 2.952 14.256 2.244C14.964 1.536 15.804 1.188 16.812 1.188C17.82 1.188 18.66 1.536 19.368 2.244C20.076 2.952 20.424 3.792 20.424 4.8C20.424 5.808 20.076 6.648 19.368 7.356C18.66 8.064 17.82 8.412 16.812 8.412C15.804 8.412 14.964 8.064 14.256 7.356Z" fill="#121180"/>
<path d="M14.256 7.35599C13.56 6.65999 13.2 5.80799 13.2 4.79999C13.2 3.79199 13.548 2.95199 14.256 2.24399C14.964 1.53599 15.804 1.18799 16.812 1.18799C17.82 1.18799 18.66 1.53599 19.368 2.24399C20.076 2.95199 20.424 3.79199 20.424 4.79999C20.424 5.80799 20.076 6.64799 19.368 7.35599C18.66 8.06399 17.82 8.41199 16.812 8.41199C15.804 8.41199 14.964 8.06399 14.256 7.35599Z" fill="#FA921C"/>
</g>
<defs>
<clipPath id="clip0_1011_11069">
<rect width="20.4" height="24" fill="white"/>
</clipPath>
</defs>
</svg>
