<svg width="24" height="24" viewBox="0 0 24 24" fill="none" xmlns="http://www.w3.org/2000/svg">
<mask id="path-1-inside-1_1011_11100" fill="white">
<path d="M0 12C0 5.37258 5.37258 0 12 0C18.6274 0 24 5.37258 24 12C24 18.6274 18.6274 24 12 24C5.37258 24 0 18.6274 0 12Z"/>
</mask>
<path d="M0 12C0 5.37258 5.37258 0 12 0C18.6274 0 24 5.37258 24 12C24 18.6274 18.6274 24 12 24C5.37258 24 0 18.6274 0 12Z" fill="#FA921C"/>
<path d="M0 12M24 12M24 12M0 12M12 0M24 12M12 24M0 12M12 24V22C6.47715 22 2 17.5228 2 12H0H-2C-2 19.732 4.26801 26 12 26V24ZM24 12H22C22 17.5228 17.5228 22 12 22V24V26C19.732 26 26 19.732 26 12H24ZM12 0V2C17.5228 2 22 6.47715 22 12H24H26C26 4.26801 19.732 -2 12 -2V0ZM12 0V-2C4.26801 -2 -2 4.26801 -2 12H0H2C2 6.47715 6.47715 2 12 2V0Z" fill="#FA921C" mask="url(#path-1-inside-1_1011_11100)"/>
<path d="M4.6467 18.1318C5.66467 17.3533 6.8024 16.7426 8.05989 16.2875C9.31738 15.8324 10.6347 15.6168 12.012 15.6168C13.3893 15.6168 14.7066 15.8444 15.9641 16.2875C17.2216 16.7306 18.3593 17.3533 19.3773 18.1318C20.0719 17.3174 20.6228 16.3833 21.0061 15.3414C21.3893 14.2994 21.5929 13.1976 21.5929 12.012C21.5929 9.35331 20.6587 7.1018 18.7905 5.23353C16.9222 3.36526 14.6587 2.43112 12.012 2.43112C9.36528 2.43112 7.1018 3.36526 5.23353 5.23353C3.36526 7.1018 2.43112 9.36528 2.43112 12.012C2.43112 13.1857 2.62274 14.2994 3.01795 15.3414C3.41316 16.3833 3.95209 17.3054 4.6467 18.1318ZM9.02995 12.012C8.21558 11.1976 7.82037 10.2156 7.82037 9.02995C7.82037 7.84432 8.22755 6.86228 9.02995 6.0479C9.83235 5.23353 10.8264 4.83832 12.012 4.83832C13.1976 4.83832 14.1797 5.2455 14.994 6.0479C15.8084 6.8503 16.2036 7.84432 16.2036 9.02995C16.2036 10.2156 15.7964 11.1976 14.994 12.012C14.1917 12.8264 13.1976 13.2216 12.012 13.2216C10.8264 13.2216 9.84433 12.8144 9.02995 12.012ZM12.012 24.0001C10.3593 24.0001 8.80241 23.6887 7.34132 23.054C5.88024 22.4192 4.61077 21.5689 3.53292 20.4911C2.45507 19.4132 1.60477 18.1438 0.970038 16.6827C0.335304 15.2216 0.0239258 13.6647 0.0239258 12.012C0.0239258 10.3593 0.335304 8.80241 0.970038 7.34132C1.60477 5.88024 2.45507 4.61077 3.53292 3.53292C4.61077 2.45507 5.88024 1.60477 7.34132 0.970038C8.80241 0.335304 10.3593 0.0239258 12.012 0.0239258C13.6647 0.0239258 15.2216 0.335304 16.6827 0.970038C18.1438 1.60477 19.4132 2.45507 20.4911 3.53292C21.5689 4.61077 22.4192 5.88024 23.054 7.34132C23.6887 8.80241 24.0001 10.3593 24.0001 12.012C24.0001 13.6647 23.6887 15.2216 23.054 16.6827C22.4192 18.1438 21.5689 19.4132 20.4911 20.4911C19.4132 21.5689 18.1438 22.4192 16.6827 23.054C15.2216 23.6887 13.6647 24.0001 12.012 24.0001ZM15.006 21.1378C15.9402 20.8264 16.8024 20.3833 17.5809 19.8084C16.8024 19.2336 15.9402 18.7905 15.006 18.4791C14.0719 18.1677 13.0659 18.012 12.012 18.012C10.9581 18.012 9.95211 18.1677 9.01798 18.4791C8.08384 18.7905 7.22156 19.2336 6.44311 19.8084C7.22156 20.3833 8.08384 20.8264 9.01798 21.1378C9.95211 21.4492 10.9581 21.6049 12.012 21.6049C13.0659 21.6049 14.0719 21.4492 15.006 21.1378ZM13.2934 10.3114C13.6288 9.97606 13.8084 9.54492 13.8084 9.01797C13.8084 8.49103 13.6407 8.07186 13.2934 7.72456C12.9581 7.38923 12.527 7.20959 12 7.20959C11.4731 7.20959 11.0539 7.37725 10.7066 7.72456C10.3593 8.07186 10.1916 8.49103 10.1916 9.01797C10.1916 9.54492 10.3593 9.96409 10.7066 10.3114C11.0539 10.6587 11.4731 10.8264 12 10.8264C12.527 10.8264 12.9461 10.6587 13.2934 10.3114Z" fill="#F9F9F9"/>
</svg>
