<svg width="80" height="80" viewBox="0 0 80 80" fill="none" xmlns="http://www.w3.org/2000/svg">
<g clip-path="url(#clip0_1921_755)">
<path d="M15.4 60.3999C18.8 57.7999 22.6 55.7599 26.8 54.2399C31 52.7199 35.4 51.9999 40 51.9999C44.6 51.9999 49 52.7599 53.2 54.2399C57.4 55.7199 61.2 57.7999 64.6 60.3999C66.92 57.6799 68.76 54.5599 70.04 51.0799C71.32 47.5999 72 43.9199 72 39.9599C72 31.0799 68.88 23.5599 62.64 17.3199C56.4 11.0799 48.84 7.95992 40 7.95992C31.16 7.95992 23.6 11.0799 17.36 17.3199C11.12 23.5599 7.99996 31.1199 7.99996 39.9599C7.99996 43.8799 8.63996 47.5999 9.95996 51.0799C11.28 54.5599 13.08 57.6399 15.4 60.3999ZM30.04 39.9599C27.32 37.2399 26 33.9599 26 29.9999C26 26.0399 27.36 22.7599 30.04 20.0399C32.72 17.3199 36.04 15.9999 40 15.9999C43.96 15.9999 47.24 17.3599 49.96 20.0399C52.68 22.7199 54 26.0399 54 29.9999C54 33.9599 52.64 37.2399 49.96 39.9599C47.28 42.6799 43.96 43.9999 40 43.9999C36.04 43.9999 32.76 42.6399 30.04 39.9599ZM40 79.9999C34.48 79.9999 29.28 78.9599 24.4 76.8399C19.52 74.7199 15.28 71.8799 11.68 68.2799C8.07996 64.6799 5.23996 60.4399 3.11996 55.5599C0.999961 50.6799 -0.0400391 45.4799 -0.0400391 39.9599C-0.0400391 34.4399 0.999961 29.2399 3.11996 24.3599C5.23996 19.4799 8.07996 15.2399 11.68 11.6399C15.28 8.03992 19.52 5.19992 24.4 3.07992C29.28 0.959922 34.48 -0.0800781 40 -0.0800781C45.52 -0.0800781 50.72 0.959922 55.6 3.07992C60.48 5.19992 64.72 8.03992 68.32 11.6399C71.92 15.2399 74.76 19.4799 76.88 24.3599C79 29.2399 80.04 34.4399 80.04 39.9599C80.04 45.4799 79 50.6799 76.88 55.5599C74.76 60.4399 71.92 64.6799 68.32 68.2799C64.72 71.8799 60.48 74.7199 55.6 76.8399C50.72 78.9599 45.52 79.9999 40 79.9999ZM50 70.4399C53.12 69.3999 56 67.9199 58.6 65.9999C56 64.0799 53.12 62.5999 50 61.5599C46.88 60.5199 43.52 59.9999 40 59.9999C36.48 59.9999 33.12 60.5199 30 61.5599C26.88 62.5999 24 64.0799 21.4 65.9999C24 67.9199 26.88 69.3999 30 70.4399C33.12 71.4799 36.48 71.9999 40 71.9999C43.52 71.9999 46.88 71.4799 50 70.4399ZM44.28 34.2799C45.4 33.1599 46 31.7199 46 29.9599C46 28.1999 45.44 26.7999 44.28 25.6399C43.16 24.5199 41.72 23.9199 39.96 23.9199C38.2 23.9199 36.8 24.4799 35.64 25.6399C34.48 26.7999 33.92 28.1999 33.92 29.9599C33.92 31.7199 34.48 33.1199 35.64 34.2799C36.8 35.4399 38.2 35.9999 39.96 35.9999C41.72 35.9999 43.12 35.4399 44.28 34.2799Z" fill="#F9F9F9"/>
</g>
<defs>
<clipPath id="clip0_1921_755">
<rect width="80" height="80" fill="white"/>
</clipPath>
</defs>
</svg>
