<svg width="24" height="24" viewBox="0 0 24 24" fill="none" xmlns="http://www.w3.org/2000/svg">
<g clip-path="url(#clip0_985_21438)">
<path d="M4.62004 18.1201C5.64004 17.3401 6.78004 16.7281 8.04004 16.2721C9.30004 15.8161 10.62 15.6001 12 15.6001C13.38 15.6001 14.7 15.8281 15.96 16.2721C17.22 16.7161 18.36 17.3401 19.38 18.1201C20.076 17.3041 20.628 16.3681 21.012 15.3241C21.396 14.2801 21.6 13.1761 21.6 11.9881C21.6 9.32407 20.664 7.06807 18.792 5.19607C16.92 3.32407 14.652 2.38807 12 2.38807C9.34804 2.38807 7.08004 3.32407 5.20804 5.19607C3.33604 7.06807 2.40004 9.33607 2.40004 11.9881C2.40004 13.1641 2.59204 14.2801 2.98804 15.3241C3.38404 16.3681 3.92404 17.2921 4.62004 18.1201ZM9.01204 11.9881C8.19604 11.1721 7.80004 10.1881 7.80004 9.00007C7.80004 7.81207 8.20804 6.82807 9.01204 6.01207C9.81604 5.19607 10.812 4.80007 12 4.80007C13.188 4.80007 14.172 5.20807 14.988 6.01207C15.804 6.81607 16.2 7.81207 16.2 9.00007C16.2 10.1881 15.792 11.1721 14.988 11.9881C14.184 12.8041 13.188 13.2001 12 13.2001C10.812 13.2001 9.82804 12.7921 9.01204 11.9881ZM12 24.0001C10.344 24.0001 8.78404 23.6881 7.32004 23.0521C5.85604 22.4161 4.58404 21.5641 3.50404 20.4841C2.42404 19.4041 1.57204 18.1321 0.936037 16.6681C0.300037 15.2041 -0.0119629 13.6441 -0.0119629 11.9881C-0.0119629 10.3321 0.300037 8.77207 0.936037 7.30807C1.57204 5.84407 2.42404 4.57207 3.50404 3.49207C4.58404 2.41207 5.85604 1.56007 7.32004 0.924074C8.78404 0.288074 10.344 -0.0239258 12 -0.0239258C13.656 -0.0239258 15.216 0.288074 16.68 0.924074C18.144 1.56007 19.416 2.41207 20.496 3.49207C21.576 4.57207 22.428 5.84407 23.064 7.30807C23.7 8.77207 24.012 10.3321 24.012 11.9881C24.012 13.6441 23.7 15.2041 23.064 16.6681C22.428 18.1321 21.576 19.4041 20.496 20.4841C19.416 21.5641 18.144 22.4161 16.68 23.0521C15.216 23.6881 13.656 24.0001 12 24.0001ZM15 21.1321C15.936 20.8201 16.8 20.3761 17.58 19.8001C16.8 19.2241 15.936 18.7801 15 18.4681C14.064 18.1561 13.056 18.0001 12 18.0001C10.944 18.0001 9.93604 18.1561 9.00004 18.4681C8.06404 18.7801 7.20004 19.2241 6.42004 19.8001C7.20004 20.3761 8.06404 20.8201 9.00004 21.1321C9.93604 21.4441 10.944 21.6001 12 21.6001C13.056 21.6001 14.064 21.4441 15 21.1321ZM13.284 10.2841C13.62 9.94808 13.8 9.51607 13.8 8.98807C13.8 8.46007 13.632 8.04007 13.284 7.69207C12.948 7.35607 12.516 7.17607 11.988 7.17607C11.46 7.17607 11.04 7.34407 10.692 7.69207C10.344 8.04007 10.176 8.46007 10.176 8.98807C10.176 9.51607 10.344 9.93608 10.692 10.2841C11.04 10.6321 11.46 10.8001 11.988 10.8001C12.516 10.8001 12.936 10.6321 13.284 10.2841Z" fill="#121180"/>
</g>
<defs>
<clipPath id="clip0_985_21438">
<rect width="24" height="24" fill="white"/>
</clipPath>
</defs>
</svg>
