<svg width="46" height="46" viewBox="0 0 46 46" fill="none" xmlns="http://www.w3.org/2000/svg">
<path d="M9.58333 40.25C8.52917 40.25 7.62674 39.8747 6.87604 39.124C6.12535 38.3733 5.75 37.4708 5.75 36.4167V9.58333C5.75 8.52917 6.12535 7.62674 6.87604 6.87604C7.62674 6.12535 8.52917 5.75 9.58333 5.75H24.9167C25.4597 5.75 25.9149 5.93368 26.2823 6.30104C26.6497 6.6684 26.8333 7.12361 26.8333 7.66667C26.8333 8.20972 26.6497 8.66493 26.2823 9.03229C25.9149 9.39965 25.4597 9.58333 24.9167 9.58333H9.58333V36.4167H36.4167V21.0833C36.4167 20.5403 36.6003 20.0851 36.9677 19.7177C37.3351 19.3503 37.7903 19.1667 38.3333 19.1667C38.8764 19.1667 39.3316 19.3503 39.699 19.7177C40.0663 20.0851 40.25 20.5403 40.25 21.0833V36.4167C40.25 37.4708 39.8747 38.3733 39.124 39.124C38.3733 39.8747 37.4708 40.25 36.4167 40.25H9.58333ZM17.25 32.5833C16.7069 32.5833 16.2517 32.3997 15.8844 32.0323C15.517 31.6649 15.3333 31.2097 15.3333 30.6667C15.3333 30.1236 15.517 29.6684 15.8844 29.301C16.2517 28.9337 16.7069 28.75 17.25 28.75H28.75C29.2931 28.75 29.7483 28.9337 30.1156 29.301C30.483 29.6684 30.6667 30.1236 30.6667 30.6667C30.6667 31.2097 30.483 31.6649 30.1156 32.0323C29.7483 32.3997 29.2931 32.5833 28.75 32.5833H17.25ZM17.25 26.8333C16.7069 26.8333 16.2517 26.6497 15.8844 26.2823C15.517 25.9149 15.3333 25.4597 15.3333 24.9167C15.3333 24.3736 15.517 23.9184 15.8844 23.551C16.2517 23.1837 16.7069 23 17.25 23H28.75C29.2931 23 29.7483 23.1837 30.1156 23.551C30.483 23.9184 30.6667 24.3736 30.6667 24.9167C30.6667 25.4597 30.483 25.9149 30.1156 26.2823C29.7483 26.6497 29.2931 26.8333 28.75 26.8333H17.25ZM17.25 21.0833C16.7069 21.0833 16.2517 20.8997 15.8844 20.5323C15.517 20.1649 15.3333 19.7097 15.3333 19.1667C15.3333 18.6236 15.517 18.1684 15.8844 17.801C16.2517 17.4337 16.7069 17.25 17.25 17.25H28.75C29.2931 17.25 29.7483 17.4337 30.1156 17.801C30.483 18.1684 30.6667 18.6236 30.6667 19.1667C30.6667 19.7097 30.483 20.1649 30.1156 20.5323C29.7483 20.8997 29.2931 21.0833 28.75 21.0833H17.25ZM33.1344 16.699C32.767 16.3316 32.5833 15.8764 32.5833 15.3333V13.4167H30.6667C30.1236 13.4167 29.6684 13.233 29.301 12.8656C28.9337 12.4983 28.75 12.0431 28.75 11.5C28.75 10.9569 28.9337 10.5017 29.301 10.1344C29.6684 9.76701 30.1236 9.58333 30.6667 9.58333H32.5833V7.66667C32.5833 7.12361 32.767 6.6684 33.1344 6.30104C33.5017 5.93368 33.9569 5.75 34.5 5.75C35.0431 5.75 35.4983 5.93368 35.8656 6.30104C36.233 6.6684 36.4167 7.12361 36.4167 7.66667V9.58333H38.3333C38.8764 9.58333 39.3316 9.76701 39.699 10.1344C40.0663 10.5017 40.25 10.9569 40.25 11.5C40.25 12.0431 40.0663 12.4983 39.699 12.8656C39.3316 13.233 38.8764 13.4167 38.3333 13.4167H36.4167V15.3333C36.4167 15.8764 36.233 16.3316 35.8656 16.699C35.4983 17.0663 35.0431 17.25 34.5 17.25C33.9569 17.25 33.5017 17.0663 33.1344 16.699Z" fill="#F9F9F9"/>
</svg>
