<svg width="32" height="32" viewBox="0 0 32 32" fill="none" xmlns="http://www.w3.org/2000/svg">
<path d="M3 2C2.73478 2 2.48043 2.10536 2.29289 2.29289C2.10536 2.48043 2 2.73478 2 3V9C2 9.26522 1.89464 9.51957 1.70711 9.70711C1.51957 9.89464 1.26522 10 1 10C0.734784 10 0.48043 9.89464 0.292893 9.70711C0.105357 9.51957 0 9.26522 0 9V3C0 2.20435 0.31607 1.44129 0.87868 0.87868C1.44129 0.31607 2.20435 0 3 0L9 0C9.26522 0 9.51957 0.105357 9.70711 0.292893C9.89464 0.48043 10 0.734784 10 1C10 1.26522 9.89464 1.51957 9.70711 1.70711C9.51957 1.89464 9.26522 2 9 2H3ZM22 1C22 0.734784 22.1054 0.48043 22.2929 0.292893C22.4804 0.105357 22.7348 0 23 0L29 0C29.7956 0 30.5587 0.31607 31.1213 0.87868C31.6839 1.44129 32 2.20435 32 3V9C32 9.26522 31.8946 9.51957 31.7071 9.70711C31.5196 9.89464 31.2652 10 31 10C30.7348 10 30.4804 9.89464 30.2929 9.70711C30.1054 9.51957 30 9.26522 30 9V3C30 2.73478 29.8946 2.48043 29.7071 2.29289C29.5196 2.10536 29.2652 2 29 2H23C22.7348 2 22.4804 1.89464 22.2929 1.70711C22.1054 1.51957 22 1.26522 22 1ZM1 22C1.26522 22 1.51957 22.1054 1.70711 22.2929C1.89464 22.4804 2 22.7348 2 23V29C2 29.2652 2.10536 29.5196 2.29289 29.7071C2.48043 29.8946 2.73478 30 3 30H9C9.26522 30 9.51957 30.1054 9.70711 30.2929C9.89464 30.4804 10 30.7348 10 31C10 31.2652 9.89464 31.5196 9.70711 31.7071C9.51957 31.8946 9.26522 32 9 32H3C2.20435 32 1.44129 31.6839 0.87868 31.1213C0.31607 30.5587 0 29.7956 0 29L0 23C0 22.7348 0.105357 22.4804 0.292893 22.2929C0.48043 22.1054 0.734784 22 1 22ZM31 22C31.2652 22 31.5196 22.1054 31.7071 22.2929C31.8946 22.4804 32 22.7348 32 23V29C32 29.7956 31.6839 30.5587 31.1213 31.1213C30.5587 31.6839 29.7956 32 29 32H23C22.7348 32 22.4804 31.8946 22.2929 31.7071C22.1054 31.5196 22 31.2652 22 31C22 30.7348 22.1054 30.4804 22.2929 30.2929C22.4804 30.1054 22.7348 30 23 30H29C29.2652 30 29.5196 29.8946 29.7071 29.7071C29.8946 29.5196 30 29.2652 30 29V23C30 22.7348 30.1054 22.4804 30.2929 22.2929C30.4804 22.1054 30.7348 22 31 22ZM6 9C6 8.73478 6.10536 8.48043 6.29289 8.29289C6.48043 8.10536 6.73478 8 7 8C7.26522 8 7.51957 8.10536 7.70711 8.29289C7.89464 8.48043 8 8.73478 8 9V23C8 23.2652 7.89464 23.5196 7.70711 23.7071C7.51957 23.8946 7.26522 24 7 24C6.73478 24 6.48043 23.8946 6.29289 23.7071C6.10536 23.5196 6 23.2652 6 23V9ZM10 9C10 8.73478 10.1054 8.48043 10.2929 8.29289C10.4804 8.10536 10.7348 8 11 8C11.2652 8 11.5196 8.10536 11.7071 8.29289C11.8946 8.48043 12 8.73478 12 9V23C12 23.2652 11.8946 23.5196 11.7071 23.7071C11.5196 23.8946 11.2652 24 11 24C10.7348 24 10.4804 23.8946 10.2929 23.7071C10.1054 23.5196 10 23.2652 10 23V9ZM14 9C14 8.73478 14.1054 8.48043 14.2929 8.29289C14.4804 8.10536 14.7348 8 15 8C15.2652 8 15.5196 8.10536 15.7071 8.29289C15.8946 8.48043 16 8.73478 16 9V23C16 23.2652 15.8946 23.5196 15.7071 23.7071C15.5196 23.8946 15.2652 24 15 24C14.7348 24 14.4804 23.8946 14.2929 23.7071C14.1054 23.5196 14 23.2652 14 23V9ZM18 9C18 8.73478 18.1054 8.48043 18.2929 8.29289C18.4804 8.10536 18.7348 8 19 8H21C21.2652 8 21.5196 8.10536 21.7071 8.29289C21.8946 8.48043 22 8.73478 22 9V23C22 23.2652 21.8946 23.5196 21.7071 23.7071C21.5196 23.8946 21.2652 24 21 24H19C18.7348 24 18.4804 23.8946 18.2929 23.7071C18.1054 23.5196 18 23.2652 18 23V9ZM24 9C24 8.73478 24.1054 8.48043 24.2929 8.29289C24.4804 8.10536 24.7348 8 25 8C25.2652 8 25.5196 8.10536 25.7071 8.29289C25.8946 8.48043 26 8.73478 26 9V23C26 23.2652 25.8946 23.5196 25.7071 23.7071C25.5196 23.8946 25.2652 24 25 24C24.7348 24 24.4804 23.8946 24.2929 23.7071C24.1054 23.5196 24 23.2652 24 23V9Z" fill="#FA921C"/>
</svg>
