<svg width="46" height="46" viewBox="0 0 46 46" fill="none" xmlns="http://www.w3.org/2000/svg">
<path d="M36.4167 33.925V37.375C36.4167 37.6306 36.5125 37.8542 36.7042 38.0458C36.8958 38.2375 37.1194 38.3333 37.375 38.3333C37.6306 38.3333 37.8542 38.2375 38.0458 38.0458C38.2375 37.8542 38.3333 37.6306 38.3333 37.375V31.625C38.3333 31.3694 38.2375 31.1458 38.0458 30.9542C37.8542 30.7625 37.6306 30.6667 37.375 30.6667H31.625C31.3694 30.6667 31.1458 30.7625 30.9542 30.9542C30.7625 31.1458 30.6667 31.3694 30.6667 31.625C30.6667 31.8806 30.7625 32.1042 30.9542 32.2958C31.1458 32.4875 31.3694 32.5833 31.625 32.5833H35.075L30.3792 37.2792C30.1875 37.4708 30.0917 37.6944 30.0917 37.95C30.0917 38.2056 30.1875 38.4292 30.3792 38.6208C30.5708 38.8125 30.7944 38.9083 31.05 38.9083C31.3056 38.9083 31.5292 38.8125 31.7208 38.6208L36.4167 33.925ZM9.58333 40.25C8.52917 40.25 7.62674 39.8747 6.87604 39.124C6.12535 38.3733 5.75 37.4708 5.75 36.4167V9.58333C5.75 8.52917 6.12535 7.62674 6.87604 6.87604C7.62674 6.12535 8.52917 5.75 9.58333 5.75H36.4167C37.4708 5.75 38.3733 6.12535 39.124 6.87604C39.8747 7.62674 40.25 8.52917 40.25 9.58333V19.1667C40.25 19.7097 40.0663 20.1649 39.699 20.5323C39.3316 20.8997 38.8764 21.0833 38.3333 21.0833C37.7903 21.0833 37.3351 20.8997 36.9677 20.5323C36.6003 20.1649 36.4167 19.7097 36.4167 19.1667V9.58333H9.58333V36.4167H19.1667C19.7097 36.4167 20.1649 36.6003 20.5323 36.9677C20.8997 37.3351 21.0833 37.7903 21.0833 38.3333C21.0833 38.8764 20.8997 39.3316 20.5323 39.699C20.1649 40.0663 19.7097 40.25 19.1667 40.25H9.58333ZM9.58333 34.5V36.4167V9.58333V21.2271V21.0833V34.5ZM13.9677 32.0323C14.3351 32.3997 14.7903 32.5833 15.3333 32.5833H19.3104C19.8535 32.5833 20.3087 32.3997 20.676 32.0323C21.0434 31.6649 21.2271 31.2097 21.2271 30.6667C21.2271 30.1236 21.0434 29.6684 20.676 29.301C20.3087 28.9337 19.8535 28.75 19.3104 28.75H15.3333C14.7903 28.75 14.3351 28.9337 13.9677 29.301C13.6003 29.6684 13.4167 30.1236 13.4167 30.6667C13.4167 31.2097 13.6003 31.6649 13.9677 32.0323ZM13.9677 24.3656C14.3351 24.733 14.7903 24.9167 15.3333 24.9167H24.9167C25.4597 24.9167 25.9149 24.733 26.2823 24.3656C26.6497 23.9983 26.8333 23.5431 26.8333 23C26.8333 22.4569 26.6497 22.0017 26.2823 21.6344C25.9149 21.267 25.4597 21.0833 24.9167 21.0833H15.3333C14.7903 21.0833 14.3351 21.267 13.9677 21.6344C13.6003 22.0017 13.4167 22.4569 13.4167 23C13.4167 23.5431 13.6003 23.9983 13.9677 24.3656ZM13.9677 16.699C14.3351 17.0663 14.7903 17.25 15.3333 17.25H30.6667C31.2097 17.25 31.6649 17.0663 32.0323 16.699C32.3997 16.3316 32.5833 15.8764 32.5833 15.3333C32.5833 14.7903 32.3997 14.3351 32.0323 13.9677C31.6649 13.6003 31.2097 13.4167 30.6667 13.4167H15.3333C14.7903 13.4167 14.3351 13.6003 13.9677 13.9677C13.6003 14.3351 13.4167 14.7903 13.4167 15.3333C13.4167 15.8764 13.6003 16.3316 13.9677 16.699ZM34.5 44.0833C31.8486 44.0833 29.5885 43.149 27.7198 41.2802C25.851 39.4115 24.9167 37.1514 24.9167 34.5C24.9167 31.8486 25.851 29.5885 27.7198 27.7198C29.5885 25.851 31.8486 24.9167 34.5 24.9167C37.1514 24.9167 39.4115 25.851 41.2802 27.7198C43.149 29.5885 44.0833 31.8486 44.0833 34.5C44.0833 37.1514 43.149 39.4115 41.2802 41.2802C39.4115 43.149 37.1514 44.0833 34.5 44.0833Z" fill="#F9F9F9"/>
</svg>
