<svg width="390" height="844" viewBox="0 0 390 844" fill="none" xmlns="http://www.w3.org/2000/svg">
<path fill-rule="evenodd" clip-rule="evenodd" d="M563.5 1050.43C362.903 1272.08 161.462 1493.73 -39.1353 1715.38C-53.4486 1731.12 -68.1829 1747.49 -87.3375 1756.94C-106.492 1766.38 -131.33 1767.85 -148.169 1754.63C-168.376 1738.68 -290.869 1709.5 -290.869 1683.68C-291.079 1140.27 -291.5 597.055 -291.5 53.6442C-291.5 24.6791 -169.85 -6.80577 -151.537 -29.2643C-130.067 -55.5009 -92.3893 -60.5386 -58.2899 -61.588C-23.3484 -62.4276 15.3814 -59.6988 40.0088 -34.9314C65.6887 -9.11462 67.3726 31.1856 67.5831 67.497C68.425 275.501 69.267 483.509 69.8985 691.513C69.8985 705.366 70.3194 720.058 78.3181 731.393C90.737 749.023 115.996 750.493 137.466 750.493C180.617 750.493 223.558 750.073 266.708 749.863C279.127 749.863 292.178 749.443 302.702 742.727C320.594 730.973 322.7 705.995 322.696 684.586C322.694 671.678 322.708 394.179 322.691 261.859C322.691 229.746 326.165 199.306 346.03 176.848C365.395 160.057 394.687 153.973 420.156 153.134C469.621 151.455 529.611 155.443 552.344 199.311C560.284 217.514 562.044 239.385 562.044 260.164C562.044 297.315 563.492 1045.68 563.5 1050.43Z" fill="#F9F9F9"/>
</svg>
